<svg xmlns="http://www.w3.org/2000/svg" width="1600" height="760" viewBox="0 0 1600 760">
<defs>
<marker id="arrow" markerWidth="10" markerHeight="10" refX="8.5" refY="3.5" orient="auto" markerUnits="strokeWidth">
<path d="M0,0 L9,3.5 L0,7 Z" fill="#333333"/>
</marker>
</defs>
<rect width="100%" height="100%" fill="#FFFFFF"/>
<rect x="630" y="25" width="340" height="72" rx="8" fill="#F4F4F4" stroke="#333333" stroke-width="2"/>
<text x="800.0" y="70.52" text-anchor="middle" font-family="SimSun, 'Microsoft YaHei', sans-serif" font-size="28" font-weight="600" fill="#111111">第1章  引言</text>
<line x1="800" y1="97" x2="800" y2="132" stroke="#333333" stroke-width="2.2" marker-end="url(#arrow)"/>
<rect x="630" y="140" width="340" height="72" rx="8" fill="#F4F4F4" stroke="#333333" stroke-width="2"/>
<text x="800.0" y="184.5" text-anchor="middle" font-family="SimSun, 'Microsoft YaHei', sans-serif" font-size="25" font-weight="600" fill="#111111">第2章  相关理论与关键技术</text>
<line x1="800" y1="212" x2="800" y2="265" stroke="#333333" stroke-width="2.2" marker-end="url(#arrow)"/>
<rect x="55" y="275" width="1490" height="245" rx="16" fill="#FFFFFF" stroke="#777777" stroke-width="1.8" stroke-dasharray="10 8"/>
<rect x="675" y="258" width="250" height="38" fill="#FFFFFF"/>
<text x="800" y="285" text-anchor="middle" font-family="SimSun, 'Microsoft YaHei', sans-serif" font-size="26" font-weight="600" fill="#111111">核心方法研究</text>
<rect x="115" y="335" width="390" height="125" rx="8" fill="#EAF4E5" stroke="#333333" stroke-width="2"/>
<text x="310.0" y="388.78999999999996" text-anchor="middle" font-family="SimSun, 'Microsoft YaHei', sans-serif" font-size="26" font-weight="600" fill="#111111">第3章</text>
<text x="310.0" y="423.89" text-anchor="middle" font-family="SimSun, 'Microsoft YaHei', sans-serif" font-size="26" font-weight="400" fill="#111111">三模态可信度评估</text>
<rect x="605" y="335" width="390" height="125" rx="8" fill="#E8F0FA" stroke="#333333" stroke-width="2"/>
<text x="800.0" y="388.78999999999996" text-anchor="middle" font-family="SimSun, 'Microsoft YaHei', sans-serif" font-size="26" font-weight="600" fill="#111111">第4章</text>
<text x="800.0" y="423.89" text-anchor="middle" font-family="SimSun, 'Microsoft YaHei', sans-serif" font-size="26" font-weight="400" fill="#111111">可信证据融合</text>
<rect x="1095" y="335" width="390" height="125" rx="8" fill="#FFF1DF" stroke="#333333" stroke-width="2"/>
<text x="1290.0" y="388.78999999999996" text-anchor="middle" font-family="SimSun, 'Microsoft YaHei', sans-serif" font-size="26" font-weight="600" fill="#111111">第5章</text>
<text x="1290.0" y="423.89" text-anchor="middle" font-family="SimSun, 'Microsoft YaHei', sans-serif" font-size="26" font-weight="400" fill="#111111">恶意漏报风险控制</text>
<line x1="505" y1="397.5" x2="595" y2="397.5" stroke="#333333" stroke-width="2.2" marker-end="url(#arrow)"/>
<line x1="995" y1="397.5" x2="1085" y2="397.5" stroke="#333333" stroke-width="2.2" marker-end="url(#arrow)"/>
<line x1="800" y1="520" x2="800" y2="555" stroke="#333333" stroke-width="2.2" marker-end="url(#arrow)"/>
<rect x="630" y="565" width="340" height="72" rx="8" fill="#F4F4F4" stroke="#333333" stroke-width="2"/>
<text x="800.0" y="609.5" text-anchor="middle" font-family="SimSun, 'Microsoft YaHei', sans-serif" font-size="25" font-weight="600" fill="#111111">第6章  实验设计与结果分析</text>
<line x1="800" y1="637" x2="800" y2="670" stroke="#333333" stroke-width="2.2" marker-end="url(#arrow)"/>
<rect x="630" y="678" width="340" height="62" rx="8" fill="#F4F4F4" stroke="#333333" stroke-width="2"/>
<text x="800.0" y="717.5" text-anchor="middle" font-family="SimSun, 'Microsoft YaHei', sans-serif" font-size="25" font-weight="600" fill="#111111">第7章  总结与展望</text>
</svg>
