<svg xmlns="http://www.w3.org/2000/svg" width="930" height="500" viewBox="0 0 930 500">
  <defs><marker id="arrow" markerWidth="9" markerHeight="9" refX="8" refY="4.5" orient="auto" markerUnits="strokeWidth"><path d="M0,0 L9,4.5 L0,9 Z" fill="#222"/></marker><style>.box{fill:#fff;stroke:#222;stroke-width:1.2}.soft{fill:#f2f6fb;stroke:#4f7fbf;stroke-width:1.1}.group{fill:none;stroke:#666;stroke-width:1.1;stroke-dasharray:6 5}.line{stroke:#222;stroke-width:1.2;fill:none;marker-end:url(#arrow)}.title{font-family:"SimSun","Microsoft YaHei",Arial,sans-serif;font-size:18px;font-weight:bold}.txt{font-family:"SimSun","Microsoft YaHei",Arial,sans-serif;font-size:15px}.small{font-family:"SimSun","Microsoft YaHei",Arial,sans-serif;font-size:13px}.cap{font-family:"Times New Roman","SimSun",serif;font-size:14px}</style></defs>
  <rect width="930" height="500" fill="#fff"/><text x="465" y="34" text-anchor="middle" class="title">直接概率融合与本文证据融合对比</text>
  <rect x="45" y="70" width="380" height="330" class="group"/><text x="235" y="100" text-anchor="middle" class="txt">直接概率融合</text>
  <rect x="85" y="130" width="115" height="44" class="box"/><text x="142" y="157" text-anchor="middle" class="txt">API 概率</text><rect x="85" y="210" width="115" height="44" class="box"/><text x="142" y="237" text-anchor="middle" class="txt">图分支概率</text><rect x="85" y="290" width="115" height="44" class="box"/><text x="142" y="317" text-anchor="middle" class="txt">Manifest 概率</text>
  <rect x="260" y="202" width="115" height="60" class="box"/><text x="318" y="227" text-anchor="middle" class="txt">平均或</text><text x="318" y="248" text-anchor="middle" class="txt">固定加权</text><rect x="302" y="340" width="95" height="36" class="soft"/><text x="350" y="363" text-anchor="middle" class="small">最终概率</text>
  <line x1="200" y1="152" x2="260" y2="218" class="line"/><line x1="200" y1="232" x2="260" y2="232" class="line"/><line x1="200" y1="312" x2="260" y2="246" class="line"/><line x1="318" y1="262" x2="350" y2="340" class="line"/>
  <rect x="505" y="70" width="380" height="330" class="group"/><text x="695" y="100" text-anchor="middle" class="txt">本文证据融合</text>
  <rect x="535" y="118" width="135" height="46" class="box"/><text x="602" y="146" text-anchor="middle" class="txt">分支证据</text><rect x="535" y="190" width="135" height="46" class="box"/><text x="602" y="218" text-anchor="middle" class="txt">模态可信度</text><rect x="535" y="262" width="135" height="46" class="box"/><text x="602" y="290" text-anchor="middle" class="txt">原始冲突</text>
  <rect x="730" y="142" width="120" height="58" class="box"/><text x="790" y="166" text-anchor="middle" class="txt">证据调整</text><text x="790" y="187" text-anchor="middle" class="small">低可信转不确定</text><rect x="730" y="252" width="120" height="58" class="box"/><text x="790" y="276" text-anchor="middle" class="txt">冲突保留</text><text x="790" y="297" text-anchor="middle" class="small">提高不确定性</text><rect x="640" y="340" width="135" height="36" class="soft"/><text x="708" y="363" text-anchor="middle" class="small">概率 + 不确定性</text>
  <line x1="670" y1="141" x2="730" y2="171" class="line"/><line x1="670" y1="213" x2="730" y2="171" class="line"/><line x1="670" y1="285" x2="730" y2="281" class="line"/><line x1="790" y1="200" x2="790" y2="252" class="line"/><line x1="790" y1="310" x2="735" y2="340" class="line"/>
  <text x="465" y="444" text-anchor="middle" class="cap">图4-2 直接概率融合与本文证据融合对比</text><text x="465" y="468" text-anchor="middle" class="cap">Figure 4-2 Comparison Between Direct Probability Fusion and the Proposed Evidence Fusion</text>
</svg>
