<svg xmlns="http://www.w3.org/2000/svg" width="760" height="430" viewBox="0 0 760 430">
  <defs><marker id="arrow" markerWidth="9" markerHeight="9" refX="8" refY="4.5" orient="auto" markerUnits="strokeWidth"><path d="M0,0 L9,4.5 L0,9 Z" fill="#222"/></marker><style>.axis{stroke:#222;stroke-width:1.2;fill:none;marker-end:url(#arrow)}.grid{stroke:#ddd;stroke-width:.8;fill:none}.curve{stroke:#222;stroke-width:2;fill:none}.curve2{stroke:#4f7fbf;stroke-width:2;fill:none;stroke-dasharray:6 4}.txt{font-family:"SimSun","Microsoft YaHei",Arial,sans-serif;font-size:14px}.small{font-family:"SimSun","Microsoft YaHei",Arial,sans-serif;font-size:12px}.title{font-family:"SimSun","Microsoft YaHei",Arial,sans-serif;font-size:18px;font-weight:bold}.cap{font-family:"Times New Roman","SimSun",serif;font-size:14px}</style></defs>
  <rect width="760" height="430" fill="#fff"/><text x="380" y="34" text-anchor="middle" class="title">覆盖率与接受样本风险关系示意图</text>
  <line x1="110" y1="320" x2="650" y2="320" class="axis"/><line x1="110" y1="320" x2="110" y2="80" class="axis"/>
  <line x1="110" y1="260" x2="640" y2="260" class="grid"/><line x1="110" y1="200" x2="640" y2="200" class="grid"/><line x1="110" y1="140" x2="640" y2="140" class="grid"/><line x1="230" y1="80" x2="230" y2="320" class="grid"/><line x1="350" y1="80" x2="350" y2="320" class="grid"/><line x1="470" y1="80" x2="470" y2="320" class="grid"/><line x1="590" y1="80" x2="590" y2="320" class="grid"/>
  <path d="M130,145 C230,165 330,200 430,242 C505,274 565,298 630,310" class="curve"/><path d="M130,120 C230,148 330,186 430,224 C515,260 575,286 630,300" class="curve2"/>
  <text x="380" y="365" text-anchor="middle" class="txt">覆盖率</text><text x="62" y="205" text-anchor="middle" class="txt" transform="rotate(-90 62 205)">接受样本风险</text><text x="118" y="340" class="small">低</text><text x="622" y="340" class="small">高</text><text x="78" y="315" class="small">低</text><text x="78" y="90" class="small">高</text>
  <line x1="485" y1="112" x2="535" y2="112" class="curve"/><text x="545" y="117" class="small">普通选择性方法</text><line x1="485" y1="140" x2="535" y2="140" class="curve2"/><text x="545" y="145" class="small">本文类别条件拒识</text>
  <text x="380" y="392" text-anchor="middle" class="cap">图5-2 覆盖率与接受样本风险关系示意图</text><text x="380" y="414" text-anchor="middle" class="cap">Figure 5-2 Illustration of Coverage and Accepted-sample Risk</text>
</svg>
